<mxfile host="app.diagrams.net" modified="2023-02-05T11:13:33.139Z" agent="5.0 (Windows NT 6.1; Win64; x64) AppleWebKit/537.36 (KHTML, like Gecko) Chrome/109.0.0.0 Safari/537.36" version="20.7.4" etag="EUrErUem_-gIseSt2bYu" type="github">
  <diagram id="3sjXZGHV_kpMKQa_1T-N" name="第 1 页">
    <mxGraphModel dx="1434" dy="764" grid="1" gridSize="10" guides="1" tooltips="1" connect="1" arrows="1" fold="1" page="1" pageScale="1" pageWidth="827" pageHeight="1169" math="0" shadow="0">
      <root>
        <mxCell id="0" />
        <mxCell id="1" parent="0" />
        <mxCell id="33OzaRti-2UMrSSnCl2L-1" value="" style="rounded=0;whiteSpace=wrap;html=1;" vertex="1" parent="1">
          <mxGeometry x="200" y="70" width="380" height="260" as="geometry" />
        </mxCell>
        <mxCell id="33OzaRti-2UMrSSnCl2L-10" style="edgeStyle=orthogonalEdgeStyle;rounded=0;orthogonalLoop=1;jettySize=auto;html=1;fontSize=15;" edge="1" parent="1" source="33OzaRti-2UMrSSnCl2L-3" target="33OzaRti-2UMrSSnCl2L-9">
          <mxGeometry relative="1" as="geometry" />
        </mxCell>
        <mxCell id="33OzaRti-2UMrSSnCl2L-3" value="new SpringApplication" style="text;html=1;strokeColor=none;fillColor=none;align=center;verticalAlign=middle;whiteSpace=wrap;rounded=0;fontSize=15;" vertex="1" parent="1">
          <mxGeometry x="210" y="80" width="170" height="40" as="geometry" />
        </mxCell>
        <mxCell id="33OzaRti-2UMrSSnCl2L-5" value="初始化器" style="rounded=0;whiteSpace=wrap;html=1;fontSize=15;" vertex="1" parent="1">
          <mxGeometry x="220" y="130" width="330" height="50" as="geometry" />
        </mxCell>
        <mxCell id="33OzaRti-2UMrSSnCl2L-9" value="做一些初始化" style="text;html=1;strokeColor=#d79b00;fillColor=#ffe6cc;align=center;verticalAlign=middle;whiteSpace=wrap;rounded=0;fontSize=15;" vertex="1" parent="1">
          <mxGeometry x="439" y="80" width="110" height="40" as="geometry" />
        </mxCell>
        <mxCell id="33OzaRti-2UMrSSnCl2L-11" value="监听器" style="rounded=0;whiteSpace=wrap;html=1;fontSize=15;" vertex="1" parent="1">
          <mxGeometry x="220" y="190" width="330" height="50" as="geometry" />
        </mxCell>
        <mxCell id="33OzaRti-2UMrSSnCl2L-12" value="加载META/INF spring.factories 方面后续调用" style="rounded=0;whiteSpace=wrap;html=1;fontSize=15;fillColor=#f8cecc;strokeColor=#b85450;" vertex="1" parent="1">
          <mxGeometry x="220" y="260" width="330" height="50" as="geometry" />
        </mxCell>
        <mxCell id="33OzaRti-2UMrSSnCl2L-14" value="" style="shape=flexArrow;endArrow=classic;html=1;rounded=0;fontSize=15;" edge="1" parent="1">
          <mxGeometry width="50" height="50" relative="1" as="geometry">
            <mxPoint x="590" y="214.5" as="sourcePoint" />
            <mxPoint x="730" y="214.5" as="targetPoint" />
          </mxGeometry>
        </mxCell>
        <mxCell id="33OzaRti-2UMrSSnCl2L-16" value="" style="rounded=0;whiteSpace=wrap;html=1;" vertex="1" parent="1">
          <mxGeometry x="810" y="80" width="380" height="260" as="geometry" />
        </mxCell>
        <mxCell id="33OzaRti-2UMrSSnCl2L-17" value="执行run方法" style="text;html=1;strokeColor=none;fillColor=none;align=center;verticalAlign=middle;whiteSpace=wrap;rounded=0;fontSize=15;" vertex="1" parent="1">
          <mxGeometry x="827" y="100" width="103" height="20" as="geometry" />
        </mxCell>
        <mxCell id="33OzaRti-2UMrSSnCl2L-18" value="prepareContext" style="rounded=0;whiteSpace=wrap;html=1;fontSize=15;fillColor=#dae8fc;strokeColor=#6c8ebf;" vertex="1" parent="1">
          <mxGeometry x="830" y="130" width="210" height="60" as="geometry" />
        </mxCell>
        <mxCell id="33OzaRti-2UMrSSnCl2L-21" style="edgeStyle=orthogonalEdgeStyle;rounded=0;orthogonalLoop=1;jettySize=auto;html=1;fontSize=15;exitX=0;exitY=0.5;exitDx=0;exitDy=0;curved=1;" edge="1" parent="1" source="33OzaRti-2UMrSSnCl2L-18" target="33OzaRti-2UMrSSnCl2L-23">
          <mxGeometry relative="1" as="geometry">
            <mxPoint x="760" y="480" as="targetPoint" />
          </mxGeometry>
        </mxCell>
        <mxCell id="33OzaRti-2UMrSSnCl2L-25" style="edgeStyle=orthogonalEdgeStyle;rounded=0;orthogonalLoop=1;jettySize=auto;html=1;fontSize=15;curved=1;" edge="1" parent="1" source="33OzaRti-2UMrSSnCl2L-19">
          <mxGeometry relative="1" as="geometry">
            <mxPoint x="1250" y="480" as="targetPoint" />
          </mxGeometry>
        </mxCell>
        <mxCell id="33OzaRti-2UMrSSnCl2L-19" value="refreshContext" style="rounded=0;whiteSpace=wrap;html=1;fontSize=15;fillColor=#d5e8d4;strokeColor=#82b366;" vertex="1" parent="1">
          <mxGeometry x="830" y="200" width="210" height="60" as="geometry" />
        </mxCell>
        <mxCell id="33OzaRti-2UMrSSnCl2L-20" value="打印banner" style="rounded=0;whiteSpace=wrap;html=1;fontSize=15;" vertex="1" parent="1">
          <mxGeometry x="827" y="270" width="210" height="60" as="geometry" />
        </mxCell>
        <mxCell id="33OzaRti-2UMrSSnCl2L-23" value="&lt;h1&gt;Load方法&lt;/h1&gt;&lt;p&gt;1、将当前启动类作为beanDefinition注册到reistry中--BeanFactoryPostProcessor&lt;/p&gt;&lt;p&gt;2、解析@SpringbootApplication @EnableAutoConfiguration&lt;/p&gt;" style="text;html=1;strokeColor=none;fillColor=none;spacing=5;spacingTop=-20;whiteSpace=wrap;overflow=hidden;rounded=0;fontSize=15;" vertex="1" parent="1">
          <mxGeometry x="230" y="490" width="410" height="170" as="geometry" />
        </mxCell>
        <mxCell id="33OzaRti-2UMrSSnCl2L-26" value="&lt;h1&gt;spring的refresh方法&lt;/h1&gt;&lt;p&gt;&lt;/p&gt;&lt;ol&gt;&lt;li&gt;.invokeBeanFactoryPostProcessor&lt;/li&gt;&lt;li&gt;ConfigurationClassPostProcessor&lt;/li&gt;&lt;li&gt;调用BeanDefinitionRegistryPostProcessor 的 postProcessBeanDefinitionRegistry方法解析各种注解@PropertySource @ComponentScan @Bean @Import&lt;/li&gt;&lt;/ol&gt;&lt;p&gt;&lt;/p&gt;" style="text;html=1;strokeColor=none;fillColor=none;spacing=5;spacingTop=-20;whiteSpace=wrap;overflow=hidden;rounded=0;fontSize=15;" vertex="1" parent="1">
          <mxGeometry x="920" y="480" width="440" height="210" as="geometry" />
        </mxCell>
        <mxCell id="33OzaRti-2UMrSSnCl2L-29" value="" style="rounded=0;whiteSpace=wrap;html=1;fontSize=15;" vertex="1" parent="1">
          <mxGeometry x="870" y="770" width="350" height="150" as="geometry" />
        </mxCell>
        <mxCell id="33OzaRti-2UMrSSnCl2L-30" value="解析@Import" style="text;html=1;strokeColor=none;fillColor=none;align=center;verticalAlign=middle;whiteSpace=wrap;rounded=0;fontSize=15;" vertex="1" parent="1">
          <mxGeometry x="882" y="770" width="100" height="30" as="geometry" />
        </mxCell>
        <mxCell id="33OzaRti-2UMrSSnCl2L-31" value="会有一个getImpots方法&lt;br&gt;AutoConfigurationImportSeclet" style="rounded=0;whiteSpace=wrap;html=1;fontSize=15;fillColor=#e1d5e7;strokeColor=#9673a6;" vertex="1" parent="1">
          <mxGeometry x="885" y="820" width="320" height="85" as="geometry" />
        </mxCell>
        <mxCell id="33OzaRti-2UMrSSnCl2L-32" value="" style="shape=flexArrow;endArrow=classic;html=1;rounded=0;fontSize=15;curved=1;fillColor=#fff2cc;strokeColor=#d6b656;" edge="1" parent="1" target="33OzaRti-2UMrSSnCl2L-29">
          <mxGeometry width="50" height="50" relative="1" as="geometry">
            <mxPoint x="1045" y="700" as="sourcePoint" />
            <mxPoint x="1100" y="690" as="targetPoint" />
          </mxGeometry>
        </mxCell>
        <mxCell id="33OzaRti-2UMrSSnCl2L-33" value="监听器模式" style="rounded=0;whiteSpace=wrap;html=1;fontSize=15;" vertex="1" parent="1">
          <mxGeometry x="220" y="1020" width="110" height="80" as="geometry" />
        </mxCell>
        <mxCell id="33OzaRti-2UMrSSnCl2L-36" style="edgeStyle=orthogonalEdgeStyle;curved=1;rounded=0;orthogonalLoop=1;jettySize=auto;html=1;fontSize=15;" edge="1" parent="1" source="33OzaRti-2UMrSSnCl2L-34">
          <mxGeometry relative="1" as="geometry">
            <mxPoint x="710" y="1180" as="targetPoint" />
          </mxGeometry>
        </mxCell>
        <mxCell id="33OzaRti-2UMrSSnCl2L-34" value="被观察的东西" style="rounded=0;whiteSpace=wrap;html=1;fontSize=15;" vertex="1" parent="1">
          <mxGeometry x="414" y="1150" width="120" height="60" as="geometry" />
        </mxCell>
        <mxCell id="33OzaRti-2UMrSSnCl2L-37" value="事件源 ： bean的生命周期&amp;nbsp; 事件：初始化 开始 结束&amp;nbsp;&amp;nbsp;" style="rounded=0;whiteSpace=wrap;html=1;fontSize=15;" vertex="1" parent="1">
          <mxGeometry x="710" y="1150" width="250" height="70" as="geometry" />
        </mxCell>
        <mxCell id="33OzaRti-2UMrSSnCl2L-54" style="edgeStyle=orthogonalEdgeStyle;curved=1;rounded=0;orthogonalLoop=1;jettySize=auto;html=1;fontSize=15;" edge="1" parent="1" source="33OzaRti-2UMrSSnCl2L-38">
          <mxGeometry relative="1" as="geometry">
            <mxPoint x="890" y="1330" as="targetPoint" />
          </mxGeometry>
        </mxCell>
        <mxCell id="33OzaRti-2UMrSSnCl2L-38" value="事件对象" style="rounded=0;whiteSpace=wrap;html=1;fontSize=15;" vertex="1" parent="1">
          <mxGeometry x="707" y="1300" width="120" height="60" as="geometry" />
        </mxCell>
        <mxCell id="33OzaRti-2UMrSSnCl2L-43" value="" style="edgeStyle=orthogonalEdgeStyle;curved=1;rounded=0;orthogonalLoop=1;jettySize=auto;html=1;fontSize=15;" edge="1" parent="1" source="33OzaRti-2UMrSSnCl2L-40" target="33OzaRti-2UMrSSnCl2L-42">
          <mxGeometry relative="1" as="geometry" />
        </mxCell>
        <mxCell id="33OzaRti-2UMrSSnCl2L-44" style="edgeStyle=orthogonalEdgeStyle;curved=1;rounded=0;orthogonalLoop=1;jettySize=auto;html=1;fontSize=15;" edge="1" parent="1" source="33OzaRti-2UMrSSnCl2L-40">
          <mxGeometry relative="1" as="geometry">
            <mxPoint x="1190" y="1420" as="targetPoint" />
          </mxGeometry>
        </mxCell>
        <mxCell id="33OzaRti-2UMrSSnCl2L-40" value="event&amp;nbsp;" style="rounded=0;whiteSpace=wrap;html=1;fontSize=15;" vertex="1" parent="1">
          <mxGeometry x="891.5" y="1300" width="120" height="60" as="geometry" />
        </mxCell>
        <mxCell id="33OzaRti-2UMrSSnCl2L-41" value="开始的时候肯定要初始化监听器" style="rounded=0;whiteSpace=wrap;html=1;fontSize=15;" vertex="1" parent="1">
          <mxGeometry x="414" y="1020" width="120" height="60" as="geometry" />
        </mxCell>
        <mxCell id="33OzaRti-2UMrSSnCl2L-42" value="type" style="whiteSpace=wrap;html=1;fontSize=15;rounded=0;" vertex="1" parent="1">
          <mxGeometry x="1130" y="1230" width="120" height="60" as="geometry" />
        </mxCell>
        <mxCell id="33OzaRti-2UMrSSnCl2L-45" value="data" style="whiteSpace=wrap;html=1;fontSize=15;rounded=0;" vertex="1" parent="1">
          <mxGeometry x="1130" y="1420" width="120" height="60" as="geometry" />
        </mxCell>
        <mxCell id="33OzaRti-2UMrSSnCl2L-50" style="edgeStyle=orthogonalEdgeStyle;curved=1;rounded=0;orthogonalLoop=1;jettySize=auto;html=1;entryX=0;entryY=0.5;entryDx=0;entryDy=0;fontSize=15;" edge="1" parent="1" target="33OzaRti-2UMrSSnCl2L-47">
          <mxGeometry relative="1" as="geometry">
            <mxPoint x="818.5" y="1610" as="sourcePoint" />
          </mxGeometry>
        </mxCell>
        <mxCell id="33OzaRti-2UMrSSnCl2L-51" style="edgeStyle=orthogonalEdgeStyle;curved=1;rounded=0;orthogonalLoop=1;jettySize=auto;html=1;entryX=0;entryY=0.65;entryDx=0;entryDy=0;entryPerimeter=0;fontSize=15;" edge="1" parent="1" target="33OzaRti-2UMrSSnCl2L-48">
          <mxGeometry relative="1" as="geometry">
            <mxPoint x="818.5" y="1610" as="sourcePoint" />
          </mxGeometry>
        </mxCell>
        <mxCell id="33OzaRti-2UMrSSnCl2L-46" value="监听器对象&amp;nbsp;" style="rounded=0;whiteSpace=wrap;html=1;fontSize=15;" vertex="1" parent="1">
          <mxGeometry x="700" y="1575" width="120" height="60" as="geometry" />
        </mxCell>
        <mxCell id="33OzaRti-2UMrSSnCl2L-47" value="&lt;span style=&quot;color: rgb(153, 0, 0); font-family: Menlo, Monaco, Consolas, &amp;quot;Courier New&amp;quot;, monospace; font-size: 12px; font-weight: 700; text-align: start; background-color: rgb(248, 248, 248);&quot;&gt;Listener&lt;/span&gt;接口" style="rounded=0;whiteSpace=wrap;html=1;fontSize=15;" vertex="1" parent="1">
          <mxGeometry x="891.5" y="1480" width="120" height="60" as="geometry" />
        </mxCell>
        <mxCell id="33OzaRti-2UMrSSnCl2L-49" style="edgeStyle=orthogonalEdgeStyle;curved=1;rounded=0;orthogonalLoop=1;jettySize=auto;html=1;entryX=0.5;entryY=1;entryDx=0;entryDy=0;fontSize=15;" edge="1" parent="1" source="33OzaRti-2UMrSSnCl2L-48" target="33OzaRti-2UMrSSnCl2L-47">
          <mxGeometry relative="1" as="geometry" />
        </mxCell>
        <mxCell id="33OzaRti-2UMrSSnCl2L-48" value="&lt;div style=&quot;text-align: start;&quot;&gt;&lt;font face=&quot;Menlo, Monaco, Consolas, Courier New, monospace&quot; color=&quot;#990000&quot;&gt;&lt;span style=&quot;font-size: 12px; background-color: rgb(248, 248, 248);&quot;&gt;&lt;b&gt;各种监听器的实现&lt;/b&gt;&lt;/span&gt;&lt;/font&gt;&lt;/div&gt;" style="rounded=0;whiteSpace=wrap;html=1;fontSize=15;" vertex="1" parent="1">
          <mxGeometry x="891.5" y="1670" width="120" height="60" as="geometry" />
        </mxCell>
        <mxCell id="33OzaRti-2UMrSSnCl2L-55" value="先添加好监听器 ，在事件源触发的时候去调用一个监听器的扩展类遍历执行监听器" style="rounded=0;whiteSpace=wrap;html=1;fontSize=15;fillColor=#f8cecc;strokeColor=#b85450;" vertex="1" parent="1">
          <mxGeometry x="180" y="1400" width="190" height="70" as="geometry" />
        </mxCell>
      </root>
    </mxGraphModel>
  </diagram>
</mxfile>
